<?xml version="1.0" encoding="utf-8"?>
<!-- Generator: Adobe Illustrator 27.9.0, SVG Export Plug-In . SVG Version: 6.00 Build 0)  -->
<svg version="1.1" id="격리_모드" xmlns="http://www.w3.org/2000/svg" xmlns:xlink="http://www.w3.org/1999/xlink" x="0px"
	 y="0px" viewBox="0 0 15 15" style="enable-background:new 0 0 15 15;" xml:space="preserve">
<style type="text/css">
	.st0{fill:#00539D;}
</style>
<g>
	<path class="st0" d="M8.24,2.83C5.38,2.16,3.68,2.42,3.51,3.53c-0.15,0.94,0.86,1.67,3.3,2.38l2.8,0.81
		c0.36,0.1,0.7,0.21,1.03,0.32c1.05-0.45,1.77-1.27,2.03-2.36C11.17,3.73,9.82,3.22,8.24,2.83"/>
	<path class="st0" d="M1.68,3.39v4.79c1.24,0.99,2.96,1.73,5.3,2.29c3.4,0.81,5.34,0.63,5.53-0.59c0.15-0.94-0.82-1.67-3.08-2.33
		L6.57,6.72C3.34,5.81,1.72,4.69,1.68,3.39"/>
	<path class="st0" d="M6.93,11.33c-2.13-0.51-3.84-1.14-5.24-1.92V15h5.94c3.73,0,5.39-1.42,5.7-3.5
		C12.11,12.08,9.84,12.03,6.93,11.33"/>
	<path class="st0" d="M1.71,3.09C1.96,1.52,4.57,1.1,8.37,2.01c1.55,0.37,3,0.88,4.39,1.6C12.68,1.42,10.88,0,8.1,0H3.17
		C2.35,0,1.68,0.67,1.68,1.5v1.82C1.68,3.25,1.7,3.17,1.71,3.09"/>
</g>
</svg>
